<svg width="495" height="250" viewBox="0 0 495 250" xmlns="http://www.w3.org/2000/svg">
<defs>
  <style>
    .title { font-family: 'Segoe UI', Arial, sans-serif; font-size: 16px; font-weight: 700; fill: #f0abfc; }
    .sub { font-family: 'Segoe UI', Arial, sans-serif; font-size: 9px; fill: #94a3b8; letter-spacing: 1px; }
  </style>
  <linearGradient id="bgGrad" x1="0%" y1="0%" x2="100%" y2="100%">
    <stop offset="0%" stop-color="#0a0118"/>
    <stop offset="100%" stop-color="#170a30"/>
  </linearGradient>
  <linearGradient id="borderGrad" x1="0%" y1="0%" x2="100%" y2="0%">
    <stop offset="0%" stop-color="#ff6ec7"/>
    <stop offset="100%" stop-color="#7c3aed"/>
  </linearGradient>
  <clipPath id="round"><rect x="0" y="0" width="495" height="250" rx="18"/></clipPath>
</defs>

<g clip-path="url(#round)">
  <rect x="0" y="0" width="495" height="250" fill="url(#bgGrad)"/>
  <g opacity="0.5">
    <circle cx="460" cy="20" r="70" fill="#a855f7" opacity="0.08"/>
    <circle cx="10" cy="245" r="60" fill="#06b6d4" opacity="0.07"/>
  </g>

  <text x="24" y="30" class="title">Achievements &amp; Trophies</text>
  <text x="24" y="47" class="sub">@Ashwin2459Bh &#183; earned milestones</text>

  <g transform="translate(94.0,108.0) scale(0.4)" opacity="0">
  <animateTransform attributeName="transform" type="scale" additive="sum" values="0.4;1.08;0.95;1" keyTimes="0;0.55;0.8;1" dur="0.85s" begin="0.35s" fill="freeze"/>
  <animate attributeName="opacity" values="0;0;1" keyTimes="0;0.05;1" dur="0.85s" begin="0.35s" fill="freeze"/>
  <g transform="translate(-74.0,-46.0)">
    <linearGradient id="tg0" x1="0%" y1="0%" x2="100%" y2="100%">
      <stop offset="0%" stop-color="#ffd700"/>
      <stop offset="100%" stop-color="#ff8c00"/>
    </linearGradient>
    <rect x="0" y="0" width="148" height="92" rx="12" fill="#12081f" stroke="url(#tg0)" stroke-width="1.4"/>
    <rect x="0" y="0" width="148" height="92" rx="12" fill="url(#tg0)" opacity="0.08"/>

    <!-- trophy cup icon -->
    <g transform="translate(20,18)" fill="none" stroke="url(#tg0)" stroke-width="2" stroke-linecap="round" stroke-linejoin="round">
      <path d="M2,2 H20 V8 C20,14 16,17 11,17 C6,17 2,14 2,8 Z"/>
      <path d="M2,4 C-3,4 -3,11 3,12"/>
      <path d="M20,4 C25,4 25,11 19,12"/>
      <line x1="11" y1="17" x2="11" y2="22"/>
      <line x1="6" y1="25" x2="16" y2="25"/>
    </g>

    <text x="136" y="24" text-anchor="end" font-family="'Segoe UI',Arial,sans-serif" font-size="13" font-weight="800" fill="url(#tg0)">SSS</text>

    <text x="14" y="58" font-family="'Segoe UI',Arial,sans-serif" font-size="19" font-weight="800" fill="#ffffff">940</text>
    <text x="14" y="76" font-family="'Segoe UI',Arial,sans-serif" font-size="11" fill="#94a3b8">Commits</text>

    <!-- shine sweep -->
    <g clip-path="url(#clip0)">
      <clipPath id="clip0"><rect x="0" y="0" width="148" height="92" rx="12"/></clipPath>
      <rect x="-40" y="-10" width="26" height="112" fill="#ffffff" opacity="0.12" transform="rotate(18)">
        <animateTransform attributeName="transform" type="translate" values="-30,0; 188,0; 188,0" keyTimes="0;0.5;1" dur="3.5s" begin="1.50s" repeatCount="indefinite" additive="sum"/>
      </rect>
    </g>
  </g>
</g>
<g transform="translate(254.0,108.0) scale(0.4)" opacity="0">
  <animateTransform attributeName="transform" type="scale" additive="sum" values="0.4;1.08;0.95;1" keyTimes="0;0.55;0.8;1" dur="0.85s" begin="0.50s" fill="freeze"/>
  <animate attributeName="opacity" values="0;0;1" keyTimes="0;0.05;1" dur="0.85s" begin="0.50s" fill="freeze"/>
  <g transform="translate(-74.0,-46.0)">
    <linearGradient id="tg1" x1="0%" y1="0%" x2="100%" y2="100%">
      <stop offset="0%" stop-color="#c0c0c0"/>
      <stop offset="100%" stop-color="#8a8a9a"/>
    </linearGradient>
    <rect x="0" y="0" width="148" height="92" rx="12" fill="#12081f" stroke="url(#tg1)" stroke-width="1.4"/>
    <rect x="0" y="0" width="148" height="92" rx="12" fill="url(#tg1)" opacity="0.08"/>

    <!-- trophy cup icon -->
    <g transform="translate(20,18)" fill="none" stroke="url(#tg1)" stroke-width="2" stroke-linecap="round" stroke-linejoin="round">
      <path d="M2,2 H20 V8 C20,14 16,17 11,17 C6,17 2,14 2,8 Z"/>
      <path d="M2,4 C-3,4 -3,11 3,12"/>
      <path d="M20,4 C25,4 25,11 19,12"/>
      <line x1="11" y1="17" x2="11" y2="22"/>
      <line x1="6" y1="25" x2="16" y2="25"/>
    </g>

    <text x="136" y="24" text-anchor="end" font-family="'Segoe UI',Arial,sans-serif" font-size="13" font-weight="800" fill="url(#tg1)">A+</text>

    <text x="14" y="58" font-family="'Segoe UI',Arial,sans-serif" font-size="19" font-weight="800" fill="#ffffff">47</text>
    <text x="14" y="76" font-family="'Segoe UI',Arial,sans-serif" font-size="11" fill="#94a3b8">Pull Requests</text>

    <!-- shine sweep -->
    <g clip-path="url(#clip1)">
      <clipPath id="clip1"><rect x="0" y="0" width="148" height="92" rx="12"/></clipPath>
      <rect x="-40" y="-10" width="26" height="112" fill="#ffffff" opacity="0.12" transform="rotate(18)">
        <animateTransform attributeName="transform" type="translate" values="-30,0; 188,0; 188,0" keyTimes="0;0.5;1" dur="3.5s" begin="1.80s" repeatCount="indefinite" additive="sum"/>
      </rect>
    </g>
  </g>
</g>
<g transform="translate(414.0,108.0) scale(0.4)" opacity="0">
  <animateTransform attributeName="transform" type="scale" additive="sum" values="0.4;1.08;0.95;1" keyTimes="0;0.55;0.8;1" dur="0.85s" begin="0.65s" fill="freeze"/>
  <animate attributeName="opacity" values="0;0;1" keyTimes="0;0.05;1" dur="0.85s" begin="0.65s" fill="freeze"/>
  <g transform="translate(-74.0,-46.0)">
    <linearGradient id="tg2" x1="0%" y1="0%" x2="100%" y2="100%">
      <stop offset="0%" stop-color="#ff6ec7"/>
      <stop offset="100%" stop-color="#a855f7"/>
    </linearGradient>
    <rect x="0" y="0" width="148" height="92" rx="12" fill="#12081f" stroke="url(#tg2)" stroke-width="1.4"/>
    <rect x="0" y="0" width="148" height="92" rx="12" fill="url(#tg2)" opacity="0.08"/>

    <!-- trophy cup icon -->
    <g transform="translate(20,18)" fill="none" stroke="url(#tg2)" stroke-width="2" stroke-linecap="round" stroke-linejoin="round">
      <path d="M2,2 H20 V8 C20,14 16,17 11,17 C6,17 2,14 2,8 Z"/>
      <path d="M2,4 C-3,4 -3,11 3,12"/>
      <path d="M20,4 C25,4 25,11 19,12"/>
      <line x1="11" y1="17" x2="11" y2="22"/>
      <line x1="6" y1="25" x2="16" y2="25"/>
    </g>

    <text x="136" y="24" text-anchor="end" font-family="'Segoe UI',Arial,sans-serif" font-size="13" font-weight="800" fill="url(#tg2)">A</text>

    <text x="14" y="58" font-family="'Segoe UI',Arial,sans-serif" font-size="19" font-weight="800" fill="#ffffff">128</text>
    <text x="14" y="76" font-family="'Segoe UI',Arial,sans-serif" font-size="11" fill="#94a3b8">Stars</text>

    <!-- shine sweep -->
    <g clip-path="url(#clip2)">
      <clipPath id="clip2"><rect x="0" y="0" width="148" height="92" rx="12"/></clipPath>
      <rect x="-40" y="-10" width="26" height="112" fill="#ffffff" opacity="0.12" transform="rotate(18)">
        <animateTransform attributeName="transform" type="translate" values="-30,0; 188,0; 188,0" keyTimes="0;0.5;1" dur="3.5s" begin="2.10s" repeatCount="indefinite" additive="sum"/>
      </rect>
    </g>
  </g>
</g>
<g transform="translate(94.0,212.0) scale(0.4)" opacity="0">
  <animateTransform attributeName="transform" type="scale" additive="sum" values="0.4;1.08;0.95;1" keyTimes="0;0.55;0.8;1" dur="0.85s" begin="0.80s" fill="freeze"/>
  <animate attributeName="opacity" values="0;0;1" keyTimes="0;0.05;1" dur="0.85s" begin="0.80s" fill="freeze"/>
  <g transform="translate(-74.0,-46.0)">
    <linearGradient id="tg3" x1="0%" y1="0%" x2="100%" y2="100%">
      <stop offset="0%" stop-color="#cd7f32"/>
      <stop offset="100%" stop-color="#a85c2a"/>
    </linearGradient>
    <rect x="0" y="0" width="148" height="92" rx="12" fill="#12081f" stroke="url(#tg3)" stroke-width="1.4"/>
    <rect x="0" y="0" width="148" height="92" rx="12" fill="url(#tg3)" opacity="0.08"/>

    <!-- trophy cup icon -->
    <g transform="translate(20,18)" fill="none" stroke="url(#tg3)" stroke-width="2" stroke-linecap="round" stroke-linejoin="round">
      <path d="M2,2 H20 V8 C20,14 16,17 11,17 C6,17 2,14 2,8 Z"/>
      <path d="M2,4 C-3,4 -3,11 3,12"/>
      <path d="M20,4 C25,4 25,11 19,12"/>
      <line x1="11" y1="17" x2="11" y2="22"/>
      <line x1="6" y1="25" x2="16" y2="25"/>
    </g>

    <text x="136" y="24" text-anchor="end" font-family="'Segoe UI',Arial,sans-serif" font-size="13" font-weight="800" fill="url(#tg3)">A+</text>

    <text x="14" y="58" font-family="'Segoe UI',Arial,sans-serif" font-size="19" font-weight="800" fill="#ffffff">24</text>
    <text x="14" y="76" font-family="'Segoe UI',Arial,sans-serif" font-size="11" fill="#94a3b8">Repositories</text>

    <!-- shine sweep -->
    <g clip-path="url(#clip3)">
      <clipPath id="clip3"><rect x="0" y="0" width="148" height="92" rx="12"/></clipPath>
      <rect x="-40" y="-10" width="26" height="112" fill="#ffffff" opacity="0.12" transform="rotate(18)">
        <animateTransform attributeName="transform" type="translate" values="-30,0; 188,0; 188,0" keyTimes="0;0.5;1" dur="3.5s" begin="2.40s" repeatCount="indefinite" additive="sum"/>
      </rect>
    </g>
  </g>
</g>
<g transform="translate(254.0,212.0) scale(0.4)" opacity="0">
  <animateTransform attributeName="transform" type="scale" additive="sum" values="0.4;1.08;0.95;1" keyTimes="0;0.55;0.8;1" dur="0.85s" begin="0.95s" fill="freeze"/>
  <animate attributeName="opacity" values="0;0;1" keyTimes="0;0.05;1" dur="0.85s" begin="0.95s" fill="freeze"/>
  <g transform="translate(-74.0,-46.0)">
    <linearGradient id="tg4" x1="0%" y1="0%" x2="100%" y2="100%">
      <stop offset="0%" stop-color="#38bdf8"/>
      <stop offset="100%" stop-color="#2563eb"/>
    </linearGradient>
    <rect x="0" y="0" width="148" height="92" rx="12" fill="#12081f" stroke="url(#tg4)" stroke-width="1.4"/>
    <rect x="0" y="0" width="148" height="92" rx="12" fill="url(#tg4)" opacity="0.08"/>

    <!-- trophy cup icon -->
    <g transform="translate(20,18)" fill="none" stroke="url(#tg4)" stroke-width="2" stroke-linecap="round" stroke-linejoin="round">
      <path d="M2,2 H20 V8 C20,14 16,17 11,17 C6,17 2,14 2,8 Z"/>
      <path d="M2,4 C-3,4 -3,11 3,12"/>
      <path d="M20,4 C25,4 25,11 19,12"/>
      <line x1="11" y1="17" x2="11" y2="22"/>
      <line x1="6" y1="25" x2="16" y2="25"/>
    </g>

    <text x="136" y="24" text-anchor="end" font-family="'Segoe UI',Arial,sans-serif" font-size="13" font-weight="800" fill="url(#tg4)">B+</text>

    <text x="14" y="58" font-family="'Segoe UI',Arial,sans-serif" font-size="19" font-weight="800" fill="#ffffff">32</text>
    <text x="14" y="76" font-family="'Segoe UI',Arial,sans-serif" font-size="11" fill="#94a3b8">Issues Closed</text>

    <!-- shine sweep -->
    <g clip-path="url(#clip4)">
      <clipPath id="clip4"><rect x="0" y="0" width="148" height="92" rx="12"/></clipPath>
      <rect x="-40" y="-10" width="26" height="112" fill="#ffffff" opacity="0.12" transform="rotate(18)">
        <animateTransform attributeName="transform" type="translate" values="-30,0; 188,0; 188,0" keyTimes="0;0.5;1" dur="3.5s" begin="2.70s" repeatCount="indefinite" additive="sum"/>
      </rect>
    </g>
  </g>
</g>
<g transform="translate(414.0,212.0) scale(0.4)" opacity="0">
  <animateTransform attributeName="transform" type="scale" additive="sum" values="0.4;1.08;0.95;1" keyTimes="0;0.55;0.8;1" dur="0.85s" begin="1.10s" fill="freeze"/>
  <animate attributeName="opacity" values="0;0;1" keyTimes="0;0.05;1" dur="0.85s" begin="1.10s" fill="freeze"/>
  <g transform="translate(-74.0,-46.0)">
    <linearGradient id="tg5" x1="0%" y1="0%" x2="100%" y2="100%">
      <stop offset="0%" stop-color="#a855f7"/>
      <stop offset="100%" stop-color="#6d28d9"/>
    </linearGradient>
    <rect x="0" y="0" width="148" height="92" rx="12" fill="#12081f" stroke="url(#tg5)" stroke-width="1.4"/>
    <rect x="0" y="0" width="148" height="92" rx="12" fill="url(#tg5)" opacity="0.08"/>

    <!-- trophy cup icon -->
    <g transform="translate(20,18)" fill="none" stroke="url(#tg5)" stroke-width="2" stroke-linecap="round" stroke-linejoin="round">
      <path d="M2,2 H20 V8 C20,14 16,17 11,17 C6,17 2,14 2,8 Z"/>
      <path d="M2,4 C-3,4 -3,11 3,12"/>
      <path d="M20,4 C25,4 25,11 19,12"/>
      <line x1="11" y1="17" x2="11" y2="22"/>
      <line x1="6" y1="25" x2="16" y2="25"/>
    </g>

    <text x="136" y="24" text-anchor="end" font-family="'Segoe UI',Arial,sans-serif" font-size="13" font-weight="800" fill="url(#tg5)">A</text>

    <text x="14" y="58" font-family="'Segoe UI',Arial,sans-serif" font-size="19" font-weight="800" fill="#ffffff">56</text>
    <text x="14" y="76" font-family="'Segoe UI',Arial,sans-serif" font-size="11" fill="#94a3b8">Followers</text>

    <!-- shine sweep -->
    <g clip-path="url(#clip5)">
      <clipPath id="clip5"><rect x="0" y="0" width="148" height="92" rx="12"/></clipPath>
      <rect x="-40" y="-10" width="26" height="112" fill="#ffffff" opacity="0.12" transform="rotate(18)">
        <animateTransform attributeName="transform" type="translate" values="-30,0; 188,0; 188,0" keyTimes="0;0.5;1" dur="3.5s" begin="3.00s" repeatCount="indefinite" additive="sum"/>
      </rect>
    </g>
  </g>
</g>

  <rect x="0" y="0" width="495" height="250" rx="18" fill="none" stroke="url(#borderGrad)" stroke-width="1.6" opacity="0.7"/>
</g>
</svg>